# xmcd
#
# Track frame offsets: 
#        150
#        19837
#        38389
#        60092
#        77246
#        88511
#        110648
#        130673
#        153584
#        173640
#        197559
#
# Disc length: 2772 seconds
#
# Revision: 0
# Processed by: cddbd v1.5.1PL0 Copyright (c) Steve Scherf et al.
# Submitted via: ExactAudioCopy v0.95a5
#
DISCID=7a0ad20b
DTITLE=Corrina Steel - Wayward
DYEAR=2004
DGENRE=Country
TTITLE0=Blessed Child
TTITLE1=Paradise Lost
TTITLE2=Move On
TTITLE3=River Gambler
TTITLE4=I Dream Of Highways
TTITLE5=Western Star
TTITLE6=Ohio
TTITLE7=Turn On The Lights
TTITLE8=Fade Into One
TTITLE9=The Last Walz
TTITLE10=May Your God Go With You
EXTD=
EXTT0=
EXTT1=
EXTT2=
EXTT3=
EXTT4=
EXTT5=
EXTT6=
EXTT7=
EXTT8=
EXTT9=
EXTT10=
PLAYORDER=
